<svg width="26" height="219" viewBox="0 0 26 219" fill="none" xmlns="http://www.w3.org/2000/svg">
<path fill-rule="evenodd" clip-rule="evenodd" d="M12.0069 50.1262C11.8872 49.6313 11.6349 49.1784 11.2769 48.8162C10.9256 48.4627 10.4877 48.2076 10.0069 48.0762C9.62727 48.0112 9.24167 47.9878 8.85693 48.0062H4.23693C3.86507 47.9892 3.49251 48.0161 3.12693 48.0862C2.63029 48.2015 2.17624 48.4545 1.81693 48.8162C1.45618 49.1778 1.20041 49.6306 1.07693 50.1262C1.01553 50.4928 0.99207 50.8648 1.00693 51.2362V55.8562C0.9859 56.2414 1.01277 56.6277 1.08693 57.0062C1.19992 57.5066 1.45314 57.9645 1.81693 58.3262C2.18492 58.666 2.63731 58.9008 3.12693 59.0062C3.49251 59.0764 3.86507 59.1032 4.23693 59.0862H8.85693C9.2421 59.1072 9.62839 59.0804 10.0069 59.0062C10.5058 58.8892 10.9626 58.6365 11.3269 58.2762C11.6594 57.9186 11.8936 57.4811 12.0069 57.0062C12.077 56.644 12.1039 56.2748 12.0869 55.9062V51.2362C12.1039 50.8644 12.0771 50.4918 12.0069 50.1262ZM10.2369 55.7562C10.2621 56.0123 10.2621 56.2702 10.2369 56.5262C10.2098 56.7056 10.1297 56.8727 10.0069 57.0062C9.88652 57.129 9.73409 57.2157 9.56693 57.2562C9.31049 57.2712 9.05338 57.2712 8.79693 57.2562H4.32693C4.07088 57.2814 3.81298 57.2814 3.55693 57.2562C3.39336 57.2139 3.24459 57.1274 3.12693 57.0062C3.00086 56.8883 2.91366 56.7349 2.87693 56.5662C2.85537 56.31 2.85537 56.0524 2.87693 55.7962V51.3262C2.85578 51.07 2.85578 50.8124 2.87693 50.5562C2.92116 50.3905 3.00725 50.239 3.12693 50.1162C3.24579 49.9986 3.39445 49.9157 3.55693 49.8762C3.81318 49.8555 4.07068 49.8555 4.32693 49.8762H8.75693C9.01316 49.8551 9.2707 49.8551 9.52693 49.8762C9.70838 49.9095 9.87562 49.9966 10.0069 50.1262C10.1274 50.2445 10.2137 50.393 10.2569 50.5562C10.2716 50.8127 10.2716 51.0698 10.2569 51.3262L10.2369 55.7562Z" fill="#B3B3B3"/>
<path fill-rule="evenodd" clip-rule="evenodd" d="M24.927 50.1263C24.812 49.6348 24.565 49.184 24.2125 48.8227C23.86 48.4614 23.4155 48.2033 22.927 48.0763C22.5472 48.0124 22.1617 47.989 21.777 48.0063H17.157C16.7718 47.9865 16.3857 48.0134 16.007 48.0863C15.5103 48.2015 15.0563 48.4546 14.697 48.8163C14.3536 49.1831 14.1153 49.6356 14.007 50.1263C13.9368 50.4918 13.91 50.8644 13.927 51.2363V55.8563C13.9059 56.2414 13.9328 56.6277 14.007 57.0063C14.1259 57.4905 14.3752 57.9329 14.7278 58.2855C15.0803 58.6381 15.5228 58.8873 16.007 59.0063C16.3726 59.076 16.7451 59.1028 17.117 59.0863H21.737C22.1221 59.106 22.5083 59.0791 22.887 59.0063C23.3819 58.8866 23.8348 58.6342 24.197 58.2763C24.5476 57.9243 24.7993 57.4863 24.927 57.0063C25.0011 56.6277 25.028 56.2414 25.007 55.8563V51.2363C25.024 50.8644 24.9971 50.4918 24.927 50.1263ZM23.157 55.7563C23.1717 56.0127 23.1717 56.2698 23.157 56.5263C23.1105 56.6906 23.0226 56.8404 22.9019 56.9611C22.7811 57.0819 22.6313 57.1698 22.467 57.2163C22.2139 57.2312 21.9601 57.2312 21.707 57.2163H17.247C16.9943 57.2418 16.7397 57.2418 16.487 57.2163C16.3098 57.1948 16.1429 57.1218 16.007 57.0063C15.8842 56.8859 15.7975 56.7334 15.757 56.5663C15.7419 56.3098 15.7419 56.0527 15.757 55.7963V51.3263C15.7358 51.07 15.7358 50.8125 15.757 50.5563C15.8012 50.3906 15.8873 50.2391 16.007 50.1163C16.1283 49.9967 16.2807 49.9135 16.447 49.8763C16.6999 49.8548 16.9541 49.8548 17.207 49.8763H21.647C21.9032 49.8556 22.1607 49.8556 22.417 49.8763C22.5783 49.9233 22.7252 50.0103 22.8441 50.1292C22.9629 50.248 23.0499 50.3949 23.097 50.5563C23.1181 50.8125 23.1181 51.07 23.097 51.3263L23.157 55.7563Z" fill="#CDCCCC"/>
<path fill-rule="evenodd" clip-rule="evenodd" d="M12.0069 63.0062C11.8879 62.522 11.6387 62.0796 11.2861 61.727C10.9335 61.3744 10.4911 61.1252 10.0069 61.0062C9.64467 60.9361 9.27542 60.9092 8.90688 60.9262H4.23688C3.86502 60.9092 3.49246 60.9361 3.12688 61.0062C2.63196 61.1259 2.17905 61.3783 1.81688 61.7362C1.46158 62.0845 1.20902 62.5239 1.08688 63.0062C1.01402 63.3849 0.987154 63.7711 1.00688 64.1562V68.7762C0.99237 69.1476 1.01582 69.5196 1.07688 69.8862C1.20393 70.3747 1.46204 70.8192 1.82334 71.1717C2.18464 71.5242 2.63538 71.7713 3.12688 71.8862C3.49086 71.9698 3.86345 72.0101 4.23688 72.0062H8.85688C9.24205 72.0273 9.62833 72.0004 10.0069 71.9262C10.5048 71.8068 10.961 71.5545 11.3269 71.1962C11.6666 70.8282 11.9015 70.3758 12.0069 69.8862C12.0766 69.5206 12.1034 69.1481 12.0869 68.7762V64.1562C12.1066 63.7711 12.0797 63.3849 12.0069 63.0062ZM10.2369 68.6862C10.2518 68.9393 10.2518 69.1931 10.2369 69.4462C10.1904 69.6106 10.1025 69.7603 9.98176 69.8811C9.86097 70.0019 9.71125 70.0897 9.54688 70.1362C9.29042 70.1509 9.03334 70.1509 8.77688 70.1362H4.32688C4.07065 70.1574 3.81311 70.1574 3.55688 70.1362C3.39552 70.0892 3.24863 70.0022 3.12977 69.8833C3.01092 69.7645 2.92394 69.6176 2.87688 69.4562C2.85617 69.2 2.85617 68.9425 2.87688 68.6862V64.2462C2.85501 63.9934 2.85501 63.7391 2.87688 63.4862C2.90569 63.3033 2.99348 63.1347 3.12688 63.0062C3.24517 62.8858 3.3937 62.7994 3.55688 62.7562C3.81311 62.7351 4.07065 62.7351 4.32688 62.7562H8.75688C9.01333 62.7412 9.27043 62.7412 9.52688 62.7562C9.70833 62.7895 9.87556 62.8766 10.0069 63.0062C10.1265 63.1275 10.2096 63.28 10.2469 63.4462C10.2724 63.6989 10.2724 63.9535 10.2469 64.2062L10.2369 68.6862Z" fill="#B3B3B3"/>
<path fill-rule="evenodd" clip-rule="evenodd" d="M24.9269 63.0063C24.807 62.5226 24.5574 62.0807 24.2049 61.7283C23.8525 61.3759 23.4107 61.1263 22.9269 61.0063C22.5613 60.9366 22.1888 60.9098 21.8169 60.9263H17.1569C16.7718 60.9066 16.3856 60.9334 16.0069 61.0063C15.5232 61.1263 15.0813 61.3759 14.7289 61.7283C14.3765 62.0807 14.1269 62.5226 14.0069 63.0063C13.9372 63.3719 13.9104 63.7445 13.9269 64.1163V68.7363C13.9072 69.1215 13.9341 69.5076 14.0069 69.8863C14.1269 70.3701 14.3765 70.8119 14.7289 71.1643C15.0813 71.5167 15.5232 71.7664 16.0069 71.8863C16.3726 71.956 16.7451 71.9829 17.1169 71.9663H21.7369C22.1088 71.9829 22.4813 71.956 22.8469 71.8863C23.3436 71.7711 23.7976 71.518 24.1569 71.1563C24.5148 70.7941 24.7672 70.3412 24.8869 69.8463C24.9674 69.4954 25.0077 69.1364 25.0069 68.7763V64.1563C25.0266 63.7712 24.9998 63.385 24.9269 63.0063ZM23.1569 68.6463C23.1713 68.9028 23.1713 69.1598 23.1569 69.4163C23.1137 69.5795 23.0274 69.728 22.9069 69.8463C22.7865 69.9691 22.6341 70.0557 22.4669 70.0963C22.214 70.1177 21.9598 70.1177 21.7069 70.0963H17.2469C16.9938 70.1112 16.74 70.1112 16.4869 70.0963C16.3226 70.0498 16.1728 69.962 16.052 69.8412C15.9313 69.7204 15.8434 69.5707 15.7969 69.4063C15.7817 69.1532 15.7817 68.8994 15.7969 68.6463V64.2463C15.7755 63.9934 15.7755 63.7392 15.7969 63.4863C15.8434 63.3219 15.9313 63.1722 16.052 63.0514C16.1728 62.9306 16.3226 62.8428 16.4869 62.7963C16.74 62.7814 16.9938 62.7814 17.2469 62.7963H21.6869C21.9432 62.7756 22.2007 62.7756 22.4569 62.7963C22.6201 62.8395 22.7686 62.9259 22.8869 63.0463C23.0097 63.1667 23.0964 63.3192 23.1369 63.4863C23.1584 63.7392 23.1584 63.9934 23.1369 64.2463L23.1569 68.6463Z" fill="#B3B3B3"/>
<path opacity="0.3" d="M19.6703 120.22C19.1793 120.215 18.7018 120.059 18.3028 119.772C17.9038 119.486 17.6026 119.084 17.4403 118.62C17.4403 118.53 17.4403 118.44 17.3603 118.44H9.44032C9.44032 118.53 9.44032 118.62 9.36032 118.62C9.23016 119.086 8.94969 119.495 8.56261 119.784C8.17553 120.074 7.70358 120.227 7.22032 120.22C6.98428 120.22 6.7579 120.314 6.591 120.481C6.42409 120.648 6.33032 120.874 6.33032 121.11C6.33032 121.346 6.42409 121.573 6.591 121.74C6.7579 121.907 6.98428 122 7.22032 122H19.6703C19.9064 122 20.1327 121.907 20.2996 121.74C20.4666 121.573 20.5603 121.346 20.5603 121.11C20.5603 120.874 20.4666 120.648 20.2996 120.481C20.1327 120.314 19.9064 120.22 19.6703 120.22Z" fill="black"/>
<path d="M15.2203 109.56H17.0003C17.2364 109.56 17.4627 109.467 17.6296 109.3C17.7966 109.133 17.8903 108.906 17.8903 108.67C17.8903 108.434 17.7966 108.208 17.6296 108.041C17.4627 107.874 17.2364 107.78 17.0003 107.78H15.2203C14.9843 107.78 14.7579 107.874 14.591 108.041C14.4241 108.208 14.3303 108.434 14.3303 108.67C14.3303 108.906 14.4241 109.133 14.591 109.3C14.7579 109.467 14.9843 109.56 15.2203 109.56Z" fill="#CDCCCC"/>
<path d="M23.2203 98.0003H3.67031C3.31819 97.9949 2.96857 98.0603 2.64219 98.1926C2.31582 98.3248 2.01932 98.5213 1.77031 98.7703C1.52129 99.0193 1.32482 99.3158 1.19256 99.6422C1.06029 99.9686 0.994912 100.318 1.00031 100.67V114C0.994912 114.352 1.06029 114.702 1.19256 115.028C1.32482 115.355 1.52129 115.651 1.77031 115.9C2.01932 116.149 2.31582 116.346 2.64219 116.478C2.96857 116.61 3.31819 116.676 3.67031 116.67H23.2203C23.5724 116.676 23.922 116.61 24.2484 116.478C24.5748 116.346 24.8713 116.149 25.1203 115.9C25.3693 115.651 25.5658 115.355 25.6981 115.028C25.8303 114.702 25.8957 114.352 25.8903 114V100.67C25.8957 100.318 25.8303 99.9686 25.6981 99.6422C25.5658 99.3158 25.3693 99.0193 25.1203 98.7703C24.8713 98.5213 24.5748 98.3248 24.2484 98.1926C23.922 98.0603 23.5724 97.9949 23.2203 98.0003ZM20.5603 110.44C20.5603 110.674 20.5143 110.906 20.4248 111.121C20.3354 111.337 20.2042 111.534 20.039 111.699C19.8737 111.864 19.6774 111.995 19.4615 112.085C19.2455 112.174 19.0141 112.22 18.7803 112.22H8.11031C7.63822 112.22 7.18547 112.033 6.85166 111.699C6.51784 111.365 6.33031 110.912 6.33031 110.44V106.89H20.5603V110.44ZM20.5603 105.11H6.33031V104.22C6.33031 103.748 6.51784 103.295 6.85166 102.962C7.18547 102.628 7.63822 102.44 8.11031 102.44H18.7803C19.0141 102.44 19.2455 102.486 19.4615 102.576C19.6774 102.665 19.8737 102.796 20.039 102.962C20.2042 103.127 20.3354 103.323 20.4248 103.539C20.5143 103.755 20.5603 103.987 20.5603 104.22V105.11Z" fill="#CDCCCC"/>
<path d="M12.5451 207.78C12.6956 207.781 12.8449 207.753 12.9844 207.696C13.1239 207.639 13.2507 207.556 13.3576 207.45C13.4646 207.344 13.5494 207.218 13.6073 207.079C13.6653 206.94 13.6951 206.791 13.6951 206.64V195.15C13.6934 194.846 13.5711 194.554 13.3551 194.34C13.2493 194.233 13.1232 194.147 12.9841 194.089C12.8451 194.031 12.6959 194 12.5451 194C12.394 193.999 12.2443 194.028 12.105 194.087C11.9657 194.145 11.8398 194.231 11.7351 194.34C11.6263 194.445 11.54 194.571 11.4815 194.71C11.4231 194.849 11.3936 194.999 11.3951 195.15V206.64C11.3951 206.791 11.4249 206.94 11.4828 207.079C11.5407 207.218 11.6256 207.344 11.7325 207.45C11.8394 207.556 11.9663 207.639 12.1057 207.696C12.2452 207.753 12.3945 207.781 12.5451 207.78Z" fill="#B3B3B3"/>
<path d="M17.815 196.42C17.5421 196.283 17.2262 196.258 16.935 196.35C16.7911 196.396 16.6578 196.47 16.5428 196.568C16.4278 196.666 16.3334 196.785 16.265 196.92C16.1243 197.192 16.0956 197.508 16.185 197.8C16.2816 198.088 16.4858 198.329 16.755 198.47C17.8953 199.055 18.9005 199.873 19.7061 200.87C20.5117 201.867 21.0998 203.022 21.4326 204.259C21.7654 205.497 21.8356 206.791 21.6386 208.058C21.4417 209.324 20.982 210.536 20.289 211.614C19.596 212.692 18.6852 213.614 17.6149 214.319C16.5446 215.024 15.3386 215.498 14.0744 215.71C12.8102 215.921 11.5157 215.866 10.2741 215.547C9.0325 215.229 7.87127 214.654 6.86501 213.86C5.65532 212.909 4.70369 211.67 4.09738 210.256C3.49107 208.842 3.24949 207.298 3.3948 205.767C3.54011 204.235 4.06765 202.764 4.92905 201.489C5.79044 200.214 6.95813 199.176 8.32501 198.47C8.45997 198.402 8.57921 198.307 8.67501 198.19C8.77104 198.074 8.84555 197.942 8.89501 197.8C8.92438 197.651 8.92438 197.499 8.89501 197.35C8.88114 197.201 8.84049 197.055 8.77501 196.92C8.70718 196.785 8.61179 196.666 8.49501 196.57C8.37698 196.472 8.24119 196.397 8.09501 196.35C7.95331 196.303 7.80355 196.286 7.65501 196.3C7.50185 196.311 7.35229 196.351 7.21501 196.42C4.92721 197.602 3.10291 199.519 2.03484 201.862C0.966772 204.205 0.716864 206.84 1.32522 209.342C1.93357 211.844 3.36492 214.07 5.38957 215.661C7.41422 217.252 9.91479 218.118 12.49 218.118C15.0652 218.118 17.5658 217.252 19.5904 215.661C21.6151 214.07 23.0464 211.844 23.6548 209.342C24.2632 206.84 24.0132 204.205 22.9452 201.862C21.8771 199.519 20.0528 197.602 17.765 196.42H17.815Z" fill="#CDCCCC"/>
<path d="M22.32 0H3.68C2.19988 0 1 1.19988 1 2.68V21.32C1 22.8001 2.19988 24 3.68 24H22.32C23.8001 24 25 22.8001 25 21.32V2.68C25 1.19988 23.8001 0 22.32 0Z" fill="#CDCCCC"/>
<path d="M13.82 10.5H12.17C11.8 10.5 11.5 10.8 11.5 11.17V20.33C11.5 20.7 11.8 21 12.17 21H13.82C14.19 21 14.49 20.7 14.49 20.33V11.17C14.49 10.8 14.19 10.5 13.82 10.5Z" fill="white"/>
<path d="M7.83001 16.5H6.18001C5.80998 16.5 5.51001 16.8 5.51001 17.17V20.33C5.51001 20.7 5.80998 21 6.18001 21H7.83001C8.20004 21 8.50001 20.7 8.50001 20.33V17.17C8.50001 16.8 8.20004 16.5 7.83001 16.5Z" fill="#B3B3B3"/>
<path d="M19.83 3H18.18C17.81 3 17.51 3.29997 17.51 3.67V20.33C17.51 20.7 17.81 21 18.18 21H19.83C20.2 21 20.5 20.7 20.5 20.33V3.67C20.5 3.29997 20.2 3 19.83 3Z" fill="#B3B3B3"/>
<path d="M24.882 156.21H12.772L4.21204 164.77C5.96052 166.31 8.10573 167.329 10.4041 167.711C12.7025 168.093 15.0619 167.823 17.2145 166.931C19.3671 166.04 21.2267 164.563 22.582 162.667C23.9374 160.772 24.7342 158.535 24.882 156.21Z" fill="#2DAEE5"/>
<path d="M3.112 163.66C1.57115 161.913 0.551492 159.768 0.168971 157.47C-0.213549 155.172 0.0564146 152.812 0.948167 150.66C1.83992 148.508 3.31768 146.649 5.21343 145.295C7.10917 143.941 9.34684 143.146 11.672 143V155.11L3.112 163.67V163.66Z" fill="#2DAEE5"/>
<path d="M13.2321 143V154.65H24.8821C24.6951 151.621 23.4077 148.766 21.2621 146.62C19.1165 144.474 16.2606 143.187 13.2321 143V143Z" fill="#005B97"/>
</svg>
